<svg xmlns="http://www.w3.org/2000/svg" viewBox="169.102 12.001 246.295 124.395" height="124.395" width="246.295"><linearGradient gradientTransform="matrix(.91634 0 0 -.91634 623.736 231.48)" y2="230.72" x2="-458.33" y1="157.156" x1="-458.33" gradientUnits="userSpaceOnUse" id="a"><stop offset="0" stop-color="#9b9b9b"/><stop offset="1" stop-color="#5b5c60"/></linearGradient><path d="M184.107 123.375l1.072-2.547V22.541l-2.681-3.353h33.39l9.117 5.498v45.723l-24.806 13.81v23.332h3.352zm15.822-55.915l10.728-6.436V35.01h-10.728z" fill="url(#a)"/><linearGradient gradientTransform="matrix(.91634 0 0 -.91634 623.736 231.48)" y2="230.72" x2="-408.358" y1="157.156" x1="-408.358" gradientUnits="userSpaceOnUse" id="b"><stop offset="0" stop-color="#9b9b9b"/><stop offset="1" stop-color="#5b5c60"/></linearGradient><path d="M263.754 19.188l5.9 6.839v78.04l-21.856 18.503-18.37-17.03V26.563l5.632-7.375zM244.58 33.67v60.339l8.984 7.912V33.669z" fill="url(#b)"/><linearGradient gradientTransform="matrix(.91634 0 0 -.91634 623.736 231.48)" y2="230.72" x2="-360.363" y1="157.156" x1="-360.363" gradientUnits="userSpaceOnUse" id="c"><stop offset="0" stop-color="#9b9b9b"/><stop offset="1" stop-color="#5b5c60"/></linearGradient><path d="M274.48 121.096V22.54l-2.681-3.353h33.387l9.118 5.498v28.293l-14.079 8.045 14.079 7.508v25.88l.94.805-15.556 11.396V74.834l-10.19-5.364v40.361l2.012 2.95-18.506 13.678zm14.75-68.386l10.726-6.436V35.01h-10.727z" fill="url(#c)"/><linearGradient gradientTransform="matrix(.91634 0 0 -.91634 623.736 231.48)" y2="230.72" x2="-310.685" y1="157.156" x1="-310.685" gradientUnits="userSpaceOnUse" id="d"><stop offset="0" stop-color="#9b9b9b"/><stop offset="1" stop-color="#5b5c60"/></linearGradient><path d="M331.065 35.01H319.13V22.54l-2.68-3.353h45.187l-2.682 3.353v12.47h-13.008v76.563l2.146 3.22-18.64 13.408 1.61-7.24V35.01z" fill="url(#d)"/><linearGradient gradientTransform="matrix(.91634 0 0 -.91634 623.736 231.48)" y2="230.72" x2="-263.422" y1="157.156" x1="-263.422" gradientUnits="userSpaceOnUse" id="e"><stop offset="0" stop-color="#9b9b9b"/><stop offset="1" stop-color="#5b5c60"/></linearGradient><path d="M394.486 19.188l9.119 5.498v13.543h-16.091v-3.218h-8.985v19.98l25.075 13.54v22.127l-40.898 32.717 1.074-2.547V76.846h14.75v9.52l8.984-6.57v-5.498l-23.732-13.41V22.542l-2.683-3.353z" fill="url(#e)"/><linearGradient gradientTransform="matrix(.91634 0 0 -.91634 623.736 231.48)" y2="189.396" x2="-457.471" y1="112.858" x1="-457.471" gradientUnits="userSpaceOnUse" id="f"><stop offset="0" stop-color="#f9da55"/><stop offset="1" stop-color="#e04305"/></linearGradient><path d="M224.987 61.48v8.878l-24.808 13.81V107.5h3.353l-19.443 15.824 1.073-2.547V84.28" fill="url(#f)"/><linearGradient gradientTransform="matrix(.91634 0 0 -.91634 623.736 231.48)" y2="189.396" x2="-408.378" y1="112.859" x1="-408.378" gradientUnits="userSpaceOnUse" id="g"><stop offset="0" stop-color="#f9da55"/><stop offset="1" stop-color="#e04305"/></linearGradient><path d="M269.637 83.289v20.724l-21.857 18.503-18.37-17.03V61.067l15.152 8.26v24.629l8.984 7.911V74.451z" fill="url(#g)"/><linearGradient gradientTransform="matrix(.91634 0 0 -.91634 623.736 231.48)" y2="189.398" x2="-359.724" y1="112.858" x1="-359.724" gradientUnits="userSpaceOnUse" id="h"><stop offset="0" stop-color="#f9da55"/><stop offset="1" stop-color="#e04305"/></linearGradient><path d="M289.48 76.68v33.099l2.012 2.95-18.504 13.678 1.474-5.363v-37.26m35.95-17.37l3.875 2.067v25.878l.94.804-15.556 11.398V74.782l-3.017-1.587" fill="url(#h)"/><linearGradient gradientTransform="matrix(.91634 0 0 -.91634 623.736 231.48)" y2="189.396" x2="-310.997" y1="112.859" x1="-310.997" gradientUnits="userSpaceOnUse" id="i"><stop offset="0" stop-color="#f9da55"/><stop offset="1" stop-color="#e04305"/></linearGradient><path d="M345.932 74.202v37.32l2.145 3.218-18.638 13.409 1.61-7.241v-56.04" fill="url(#i)"/><linearGradient gradientTransform="matrix(.91634 0 0 -.91634 623.736 231.48)" y2="189.397" x2="-262.563" y1="112.858" x1="-262.563" gradientUnits="userSpaceOnUse" id="j"><stop offset="0" stop-color="#f9da55"/><stop offset="1" stop-color="#e04305"/></linearGradient><path d="M394.554 63.6l9.034 4.88v22.126l-40.898 32.717 1.073-2.547V76.794h14.75v9.521l8.985-6.57v-5.498l-7.633-4.314" fill="url(#j)"/><path fill="#542209" d="M186.63 84.86l-.995-1.717 37.918-21.935.993 1.719zM244.09 70.199l-14.07-7.632.947-1.742 14.065 7.633zM268.526 84.112l-14.496-8.55 1.008-1.71 14.497 8.551zM275.426 84.762l-.894-1.768 14.25-7.188.894 1.77zM297.745 73.603l-.924-1.755 11.275-5.948.924 1.756zM343.824 74.048L331.43 65.87l1.093-1.653 12.392 8.177zM380.717 70.53l-.823-1.806 12.76-5.824.825 1.805z"/><path d="M183.69 120.032V22.566l-4.286-5.36H216.3l10.19 6.144v47.439l-24.807 13.809v20.971h6.047l-22.685 18.461-4.626 3.763zm1.786 3.423l-1.371-.577zm1.19-101.934v97.355l12.697-10.333h-.654V82.85l24.803-13.811V25.028l-8.04-4.849-29.884-.001 1.077 1.343zm11.774 11.507h13.702V61.37l-11.45 6.868-.766-1.275.766 1.275-2.253 1.355V33.028zm2.974 31.309l7.752-4.65V36.001L201.414 36v28.337zM227.939 105.691V25.564l6.382-8.358h29.431v1.486-1.486h.68l6.708 7.77v79.282l-23.39 19.802zm2.973-79.12v77.826l16.929 15.692 20.324-17.205V26.08l-5.095-5.903h-27.276zm12.18 67.613V31.687h11.957v73.032zm2.973-1.343l6.01 5.292V34.661h-6.01zm-1.486-58.18v-1.487z"/><path d="M272.99 120.394l-.001-97.828-4.287-5.361h36.895l10.192 6.146v29.995l-12.491 7.137 12.491 6.662-.002 26.088 1.846 1.58-19.434 14.234V75.236l-7.216-3.798v37.438l2.56 3.753-23.116 17.084 2.563-9.32zm2.975.406l-.39 1.412 13.899-10.271-1.464-2.15V66.513l13.163 6.928-.002 29.742 11.678-8.556-.036-.028v-25.67l-15.668-8.356 15.668-8.953V25.029l-8.045-4.85H274.89l1.076 1.343V120.8zm11.776-87.772h13.701v13.59l-11.449 6.871-.766-1.275.766 1.275-2.252 1.352zm2.974 16.56l7.753-4.654V36h-7.753z"/><path d="M329.575 120.302V36.001h-11.933V22.566l-4.286-5.36h51.374l-4.29 5.361v13.434h-13.007v74.628l2.693 4.035-22.971 16.528zm2.976-87.274v87.6l-.8 3.595 14.306-10.294-1.597-2.4v-78.5h13.006V21.521l1.075-1.343H319.54l1.076 1.343v11.506h10.446v1.487-1.487z"/><path d="M362.293 120.031v-45.17h17.723v8.077l6.01-4.393v-3.878L362.295 61.26V22.566l-4.287-5.361h36.48v1.487-1.487h.414l10.193 6.145v15.87h-19.066v-3.218h-6.012v17.605l25.077 13.544v23.726l-46.031 36.817zm2.974-1.105l36.848-29.479V68.922L377.041 55.38V33.027h11.96l-.003 3.218h13.118V25.028l-8.041-4.849-29.885-.001 1.078 1.345-.003 38.001L389 72.934v7.118L377.04 88.8V77.836h-11.773v41.09z"/></svg>