<?xml version="1.0" encoding="utf-8"?>
<!-- Generator: Adobe Illustrator 16.0.3, SVG Export Plug-In . SVG Version: 6.00 Build 0)  -->
<!DOCTYPE svg PUBLIC "-//W3C//DTD SVG 1.1//EN" "http://www.w3.org/Graphics/SVG/1.1/DTD/svg11.dtd">
<svg version="1.1" id="Ebene_3" xmlns="http://www.w3.org/2000/svg" xmlns:xlink="http://www.w3.org/1999/xlink" x="0px" y="0px"
	 width="566.926px" height="167.468px" viewBox="0 0 566.926 167.468" enable-background="new 0 0 566.926 167.468"
	 xml:space="preserve">
<g>
	<g>
		<path fill="#1D1D1B" d="M33.98,123.463l-0.068-41.587h5.384v49.797h-5.384L5.249,89.75l0.135,41.924H0V81.876h5.652L33.98,123.463
			z"/>
		<path fill="#1D1D1B" d="M45.31,81.876h26.419v4.912H50.827v17.294h20.767v4.912H50.827v17.767h20.902v4.912H45.31V81.876z"/>
		<path fill="#1D1D1B" d="M74.242,106.909c0-15.341,11.911-25.907,25.976-25.907c14.602,0,25.975,11.171,25.975,25.772
			c0,14.604-11.305,25.773-25.975,25.773c-14.738,0-25.976-11.373-25.976-25.572V106.909z M79.827,106.774
			c0,11.709,8.815,20.861,20.458,20.861c11.776,0,20.39-9.486,20.39-20.861c0-11.372-8.613-20.86-20.457-20.86
			c-11.709,0-20.391,9.285-20.391,20.792V106.774z"/>
		<path fill="#1D1D1B" d="M172.16,94.796c-1.548-2.153-3.433-3.971-5.586-5.383c-3.23-2.221-7.133-3.5-11.574-3.5
			c-10.902,0-20.39,8.344-20.39,20.792c0,12.652,9.556,20.996,20.457,20.996c5.249,0,9.892-1.815,13.324-4.508
			c3.5-2.761,5.922-6.527,6.73-10.433h-27.104v-4.576h33.564c-0.067,2.896-0.74,6.527-2.221,9.624
			c-4.307,9.354-14.267,14.805-24.293,14.805c-14.535,0-26.042-11.17-26.042-25.908c0-14.938,11.709-25.706,26.109-25.706
			c10.094,0,19.448,5.652,23.351,13.795h-6.325V94.796L172.16,94.796z"/>
		<path fill="#1D1D1B" d="M184.25,81.876h27.59v4.912h-22.071v17.294h21.937v4.912h-21.937v17.767h22.071v4.912h-27.59V81.876z"/>
		<path fill="#1D1D1B" d="M214.061,106.909c0-15.341,11.911-25.907,25.975-25.907c14.603,0,25.975,11.171,25.975,25.772
			c0,14.604-11.305,25.773-25.975,25.773c-14.737,0-25.975-11.373-25.975-25.572V106.909z M219.646,106.774
			c0,11.709,8.815,20.861,20.457,20.861c11.777,0,20.39-9.486,20.39-20.861c0-11.372-8.613-20.86-20.457-20.86
			c-11.709,0-20.39,9.285-20.39,20.792V106.774L219.646,106.774z"/>
	</g>
	<g>
		<path fill="#1D1D1B" d="M327.465,106.909c0-15.341,11.91-25.907,25.977-25.907c14.604,0,25.977,11.171,25.977,25.772
			c0,14.604-11.305,25.773-25.977,25.773c-14.736,0-25.977-11.373-25.977-25.572V106.909z M333.049,106.774
			c0,11.709,8.816,20.861,20.459,20.861c11.777,0,20.392-9.486,20.392-20.861c0-11.372-8.612-20.86-20.458-20.86
			c-11.708,0-20.393,9.285-20.393,20.792V106.774L333.049,106.774z"/>
		<path fill="#1D1D1B" d="M435,118.282c-3.229,7.672-11.91,14.269-22.879,14.269c-14.735,0-25.976-11.373-25.976-25.772
			c0-14.2,10.97-25.774,25.905-25.774c12.314,0,20.055,8.211,22.947,14.535h-5.99c-1.684-2.959-7.334-9.623-16.957-9.623
			c-11.641,0-20.389,9.22-20.389,20.794c0,11.777,8.813,20.929,20.389,20.929c10.434,0,15.746-7.47,16.957-9.354L435,118.282
			L435,118.282z"/>
		<path fill="#1D1D1B" d="M489.643,81.876h27.594v4.912h-22.072v17.294H517.1v4.912h-21.936v17.767h22.072v4.912h-27.594V81.876
			L489.643,81.876z"/>
		<path fill="#1D1D1B" d="M545.229,86.789H529.18v-4.912h37.746v4.912h-16.111v44.885h-5.586V86.789z"/>
	</g>
	<path fill="#1D1D1B" d="M475.575,131.673h6.932l-25.871-24.968l23.783-24.831h-6.055l-26.105,26.999v-6.396V81.876h-5.518v49.797
		h5.518v-16.228l5.08-5.307L475.575,131.673z"/>
	<path fill="none" d="M302.793,135.479c-10.838-21.554-21.646-43.05-32.46-64.562c0.06-0.042,0.108-0.083,0.163-0.11
		c2.697-1.38,5.395-2.76,8.091-4.138c3.812-1.946,7.625-3.883,11.433-5.839c4.003-2.056,8.21-3.293,12.751-3.146
		c3.091,0.1,5.925,0.999,8.411,2.895c2.193,1.674,3.747,3.848,4.938,6.306c1.129,2.332,1.934,4.759,1.979,7.377
		c0.063,3.636-1.036,6.924-2.984,9.978c-1.307,2.041-2.797,3.92-4.545,5.584c-1.203,1.146-2.49,2.203-3.738,3.299
		c-4.569-3.241-9.041-6.41-13.531-9.594c0.853-3.113,1.693-6.198,2.539-9.291c4.361,0,8.662,0,12.939,0c0-3.277,0-6.527,0-9.823
		c-6.682,0.064-13.289,0.127-19.896,0.193c-2.407,6.801-4.803,13.565-7.2,20.342c7.735,6.397,15.444,12.773,23.159,19.157
		c3.066-1.17,5.975-2.609,8.713-4.388c4.363-2.835,8-6.396,10.671-10.881c2.481-4.17,3.728-8.711,3.796-13.559
		c0.042-3.005-0.414-5.943-1.298-8.823c-1.173-3.816-2.987-7.27-5.755-10.165c-5.189-5.433-11.553-8.353-19.081-8.621
		c-4.45-0.158-8.66,0.847-12.632,2.842c-1.789,0.9-3.541,1.872-5.341,2.744c-4.01,1.939-8.04,3.837-12.062,5.748
		c-3.547,1.686-7.095,3.366-10.642,5.047c-1.199,0.569-2.399,1.14-3.6,1.71c12.046,24.562,24.078,49.093,36.104,73.625
		C296.762,138.075,299.749,136.79,302.793,135.479z"/>
	<path fill="#F10000" d="M302.793,135.479c-3.047,1.311-6.031,2.596-9.086,3.908c-12.024-24.529-24.059-49.063-36.104-73.624
		c1.201-0.57,2.4-1.141,3.6-1.71c3.547-1.682,7.095-3.362,10.642-5.047c4.022-1.911,8.052-3.809,12.062-5.748
		c1.799-0.872,3.551-1.844,5.34-2.744c3.973-1.996,8.183-3,12.631-2.842c7.529,0.268,13.894,3.188,19.082,8.621
		c2.769,2.895,4.582,6.348,5.754,10.165c0.886,2.879,1.342,5.818,1.3,8.823c-0.067,4.849-1.313,9.39-3.796,13.559
		c-2.674,4.483-6.309,8.045-10.674,10.881c-2.735,1.775-5.645,3.217-8.711,4.387c-7.715-6.383-15.424-12.759-23.158-19.157
		c2.396-6.776,4.793-13.541,7.199-20.341c6.607-0.065,13.219-0.129,19.897-0.193c0,3.296,0,6.546,0,9.823c-4.278,0-8.579,0-12.94,0
		c-0.846,3.093-1.688,6.178-2.539,9.292c4.49,3.183,8.961,6.352,13.531,9.592c1.248-1.094,2.535-2.152,3.739-3.299
		c1.748-1.662,3.238-3.541,4.543-5.584c1.95-3.053,3.05-6.34,2.986-9.977c-0.048-2.618-0.851-5.045-1.979-7.377
		c-1.188-2.458-2.742-4.632-4.937-6.306c-2.486-1.896-5.32-2.794-8.411-2.895c-4.541-0.147-8.748,1.089-12.751,3.146
		c-3.806,1.956-7.621,3.893-11.433,5.839c-2.697,1.378-5.395,2.758-8.091,4.138c-0.055,0.028-0.104,0.069-0.163,0.11
		C281.149,92.429,291.958,113.925,302.793,135.479z"/>
	<path fill="#F10000" d="M310.439,41.06c-2.162-0.445-4.265-0.879-6.423-1.324c1.257-8.395,2.514-16.788,3.773-25.202
		c3.936,0.574,7.832,1.145,11.791,1.724C316.526,24.546,313.488,32.787,310.439,41.06z"/>
	<path fill="#07B8F9" d="M345.54,34.213c2.088,3.381,4.146,6.72,6.24,10.112c-6.818,4.222-13.635,8.44-20.472,12.671
		c-1.435-2.14-2.841-4.241-4.278-6.391C333.195,45.146,339.347,39.697,345.54,34.213z"/>
	<path fill="#069211" d="M329.069,21.016c3.018,2.085,5.979,4.134,8.954,6.19c-5.377,6.412-10.737,12.805-16.136,19.239
		c-1.889-1.165-3.76-2.319-5.684-3.507C320.475,35.663,324.752,28.371,329.069,21.016z"/>
</g>
</svg>
